<svg xmlns="http://www.w3.org/2000/svg" width="22.644" height="28.728" viewBox="0 0 22.644 28.728">
  <path id="Path_26" data-name="Path 26" d="M22.61,17.1q-1.642-3.808-3.278-7.617a.76.76,0,0,0-.128-.2Q15.245,4.7,11.28.121C11.246.082,11.209.044,11.167,0c-.034.039-.064.067-.09.1Q7.138,4.809,3.2,9.517a.753.753,0,0,0-.112.19q-1.535,3.85-3.067,7.7a.4.4,0,0,0,0,.27q1.652,3.864,3.319,7.72a.384.384,0,0,0,.192.186q3.9,1.562,7.8,3.117a.318.318,0,0,0,.27-.007q3.837-1.652,7.677-3.3a.414.414,0,0,0,.241-.247q1.538-3.874,3.088-7.747a.365.365,0,0,0,0-.3M10.585,2.217c.2-.222.39-.459.594-.7l.38.435q3.331,3.853,6.664,7.7a.261.261,0,0,1,.064.27q-.766,2.858-1.529,5.715c-.011.041-.025.082-.051.169-.066-.149-.117-.259-.163-.371-1.259-3.017-2.734-5.935-4.11-8.9q-.934-2.006-1.891-4a.244.244,0,0,1,.043-.319m5.644,15.261c-.435,1.082-.864,2.168-1.3,3.25a.387.387,0,0,1-.186.19q-1.612.7-3.23,1.391a.377.377,0,0,1-.254,0Q9.613,21.665,7.977,21a.36.36,0,0,1-.179-.179q-.7-1.612-1.387-3.232a.377.377,0,0,1,0-.264q.641-1.636,1.3-3.267a.37.37,0,0,1,.177-.179q1.618-.705,3.243-1.4c.039-.018.08-.03.122-.048.039.016.08.028.119.044q1.647.655,3.294,1.316a.346.346,0,0,1,.169.169c.468,1.075.928,2.153,1.394,3.228a.335.335,0,0,1,0,.286M9.769,3.2c1.469,3.11,2.925,6.2,4.4,9.32-.09-.03-.144-.046-.2-.066-.837-.333-1.667-.69-2.515-1-.506-.183-1.038-.293-1.561-.431Q7.254,10.323,4.61,9.62c-.044-.012-.089-.03-.165-.055L9.769,3.2M3.862,10.439c1.948.518,3.879,1.034,5.811,1.549,0,.014,0,.027,0,.039-.055.027-.108.053-.165.078-.765.328-1.538.639-2.29.993-.482.229-.933.523-1.4.791Q3.758,15.084,1.69,16.282c-.053.03-.108.057-.2.108.8-2.01,1.586-3.975,2.375-5.951m1.458,7.3v7.5a7.119,7.119,0,0,0-.718-.277.958.958,0,0,1-.663-.64c-.9-2.141-1.827-4.272-2.744-6.4-.021-.05-.039-.1-.066-.167l5.249-3.04c-.034.1-.048.144-.067.192-.318.8-.639,1.595-.951,2.395a1.176,1.176,0,0,0-.041.3c0,.048,0,.1,0,.144m15.763.832q-1.173,2.94-2.349,5.88a.343.343,0,0,1-.165.17q-3.5,1.514-7,3.014a.343.343,0,0,1-.238,0q-2.443-.966-4.88-1.939a.191.191,0,0,1-.145-.208q.005-2.685,0-5.373a1.212,1.212,0,0,1,.011-.137l.035,0c.225.525.456,1.048.676,1.577a.4.4,0,0,0,.245.243c1.327.523,2.65,1.055,3.979,1.577a.411.411,0,0,0,.28,0q1.993-.846,3.977-1.706a2.913,2.913,0,0,0,.259-.153l5.21-3.017c.041-.023.083-.044.149-.078-.02.066-.03.11-.046.153m-4.823,1.518c.03-.087.043-.135.06-.181.321-.8.662-1.6.954-2.411.172-.475.27-.977.4-1.469q.623-2.344,1.247-4.687c.012-.044.03-.087.059-.177.853,1.981,1.689,3.926,2.53,5.884l-5.251,3.04" transform="translate(0)" fill="#fff"/>
</svg>
