<svg xmlns="http://www.w3.org/2000/svg" width="26.888" height="19.045" viewBox="0 0 26.888 19.045">
  <path id="youtube" d="M26.292,6.221l.034.22a3.409,3.409,0,0,0-2.317-2.366l-.024-.006C21.89,3.5,13.455,3.5,13.455,3.5s-8.413-.011-10.531.569A3.41,3.41,0,0,0,.59,6.417l-.006.024A37.478,37.478,0,0,0,.62,19.825L.585,19.6A3.409,3.409,0,0,0,2.9,21.969l.024.006c2.094.57,10.531.57,10.531.57s8.412,0,10.531-.57a3.41,3.41,0,0,0,2.335-2.348l.006-.024a35.026,35.026,0,0,0,.56-6.327c0-.082,0-.165,0-.248s0-.167,0-.258a36.137,36.137,0,0,0-.595-6.549ZM10.764,17.113V8.942l7.02,4.091Z" transform="translate(0 -3.5)" fill="#fff"/>
</svg>
