<svg xmlns="http://www.w3.org/2000/svg" xmlns:xlink="http://www.w3.org/1999/xlink" width="299.03" height="47.105" viewBox="0 0 299.03 47.105">
  <defs>
    <clipPath id="clip-path">
      <rect id="Rectangle_90" data-name="Rectangle 90" width="299.03" height="47.105" fill="#fff"/>
    </clipPath>
  </defs>
  <g id="Group_230" data-name="Group 230" clip-path="url(#clip-path)">
    <path id="Path_41" data-name="Path 41" d="M65.138,36.652h-8.5V33.42C55.2,36.295,52.151,37.67,47.3,37.67c-9.037,0-15.256-6.583-15.256-16.1,0-9.458,6.4-16.1,15.5-16.1,4.549,0,7.424,1.376,9.1,4.251V6.548h8.5ZM41.076,21.51a7.444,7.444,0,0,0,7.543,7.721,7.361,7.361,0,0,0,7.542-7.662,7.542,7.542,0,1,0-15.085-.059" transform="translate(20.206 3.449)" fill="#fff"/>
    <path id="Path_42" data-name="Path 42" d="M57.881,6.528h8.5V9.7a6.624,6.624,0,0,1,3.232-3.294,9.112,9.112,0,0,1,4.07-.9h.236v9.04c-5.2.117-7.121,1.613-7.121,5.443v16.64H57.881Z" transform="translate(36.5 3.47)" fill="#fff"/>
    <path id="Path_43" data-name="Path 43" d="M83.935,10h4.311v6.821H83.935V40.1H74.9V16.818H70.471V10H74.9V0h9.035Z" transform="translate(44.439 0)" fill="#fff"/>
    <path id="Path_44" data-name="Path 44" d="M85.336,6.525h8.5V9.7a8.987,8.987,0,0,1,8.259-4.192A11.591,11.591,0,0,1,110.23,8.56c2.278,2.152,3,4.487,3,9.277V36.629h-9.04v-16.4c0-2.275-.24-3.47-.9-4.427a4.519,4.519,0,0,0-3.829-1.857,5.111,5.111,0,0,0-4.246,2.1c-.66.957-.836,1.676-.836,3.768V36.629H85.336Z" transform="translate(53.813 3.472)" fill="#fff"/>
    <path id="Path_45" data-name="Path 45" d="M137.455,27.233c-2.814,6.524-8.264,10.415-14.723,10.415A15.849,15.849,0,0,1,106.99,21.666,15.834,15.834,0,0,1,122.608,5.505c9.04,0,15.866,7.065,15.866,16.461a11.231,11.231,0,0,1-.238,2.454H115.728a6.324,6.324,0,0,0,6.583,5.624c2.275,0,3.594-.6,5.511-2.392a2.954,2.954,0,0,0,.416-.419Zm-7.964-8.861a6.605,6.605,0,0,0-6.821-5.2,6.507,6.507,0,0,0-6.762,5.2Z" transform="translate(67.469 3.471)" fill="#fff"/>
    <path id="Path_46" data-name="Path 46" d="M159,11.192a16.561,16.561,0,0,1-1.078,21.964,15.653,15.653,0,0,1-11.612,4.491c-9.394,0-16.159-6.762-16.159-16.159A16.437,16.437,0,0,1,134.883,10a16.171,16.171,0,0,1,11.486-4.491A15.513,15.513,0,0,1,159,11.192m-19.81,10.3c0,4.427,3.111,7.721,7.241,7.721,4.07,0,7.181-3.294,7.181-7.662a7.22,7.22,0,1,0-14.423-.059" transform="translate(82.074 3.472)" fill="#fff"/>
    <rect id="Rectangle_88" data-name="Rectangle 88" width="6.5" height="6.421" transform="translate(251.643 33.68)" fill="#fff"/>
    <path id="Path_47" data-name="Path 47" d="M162.223,12.011h5.919V14.3c1.582-2.082,3.625-3,6.625-3a9.527,9.527,0,0,1,7.253,3.043,12.661,12.661,0,0,1,3,8.336c0,6.248-4.421,11-10.211,11a7.975,7.975,0,0,1-6.293-2.627v8.921h-6.294Zm7.458,6.791a5.808,5.808,0,0,0-1.456,3.626,5.291,5.291,0,0,0,5.295,5.376,5.21,5.21,0,0,0,5.207-5.335,5.185,5.185,0,0,0-5.252-5.29,4.728,4.728,0,0,0-3.793,1.622" transform="translate(102.299 7.127)" fill="#fff"/>
    <rect id="Rectangle_89" data-name="Rectangle 89" width="6.291" height="27.926" transform="translate(292.738 12.176)" fill="#fff"/>
    <path id="Path_48" data-name="Path 48" d="M32.907,21.683A16.454,16.454,0,1,1,16.456,5.23,16.453,16.453,0,0,1,32.907,21.683" transform="translate(0 3.298)" fill="#fff" fill-rule="evenodd"/>
  </g>
</svg>
