<svg xmlns="http://www.w3.org/2000/svg" xmlns:xlink="http://www.w3.org/1999/xlink" width="152.328" height="23.996" viewBox="0 0 152.328 23.996">
  <defs>
    <clipPath id="clip-path">
      <rect id="Rectangle_90" data-name="Rectangle 90" width="152.328" height="23.996" fill="#fff"/>
    </clipPath>
  </defs>
  <g id="Group_230" data-name="Group 230" clip-path="url(#clip-path)">
    <path id="Path_41" data-name="Path 41" d="M48.9,21.354h-4.33V19.708c-.733,1.464-2.286,2.165-4.758,2.165-4.6,0-7.772-3.353-7.772-8.2,0-4.818,3.26-8.2,7.894-8.2,2.317,0,3.782.7,4.636,2.165V6.019H48.9ZM36.644,13.641a3.792,3.792,0,0,0,3.843,3.933,3.75,3.75,0,0,0,3.842-3.9,3.842,3.842,0,1,0-7.684-.03" transform="translate(-5.427 -0.926)" fill="#fff"/>
    <path id="Path_42" data-name="Path 42" d="M57.881,6.024H62.21V7.641a3.374,3.374,0,0,1,1.646-1.678,4.642,4.642,0,0,1,2.073-.458h.12V10.11c-2.651.06-3.627.822-3.627,2.773V21.36H57.881Z" transform="translate(-9.803 -0.932)" fill="#fff"/>
    <path id="Path_43" data-name="Path 43" d="M77.33,5.093h2.2V8.568h-2.2V20.428h-4.6V8.568H70.471V5.093h2.256V0h4.6Z" transform="translate(-11.935 0)" fill="#fff"/>
    <path id="Path_44" data-name="Path 44" d="M85.336,6.025h4.328V7.642a4.578,4.578,0,0,1,4.207-2.136,5.9,5.9,0,0,1,4.146,1.556c1.16,1.1,1.526,2.286,1.526,4.726V21.36H94.938V13.006a3.762,3.762,0,0,0-.459-2.255,2.3,2.3,0,0,0-1.95-.946,2.6,2.6,0,0,0-2.163,1.067,2.832,2.832,0,0,0-.426,1.92V21.36h-4.6Z" transform="translate(-14.452 -0.933)" fill="#fff"/>
    <path id="Path_45" data-name="Path 45" d="M122.509,16.573a7.993,7.993,0,0,1-15.519-2.836,8.024,8.024,0,1,1,16.038.153,5.721,5.721,0,0,1-.121,1.25H111.441a3.221,3.221,0,0,0,3.353,2.865,3.59,3.59,0,0,0,2.808-1.219,1.5,1.5,0,0,0,.212-.213Zm-4.057-4.514a3.365,3.365,0,0,0-3.475-2.651,3.315,3.315,0,0,0-3.445,2.651Z" transform="translate(-18.119 -0.932)" fill="#fff"/>
    <path id="Path_46" data-name="Path 46" d="M144.847,8.4a8.437,8.437,0,0,1-.549,11.189,8.389,8.389,0,0,1-14.147-5.944,8.373,8.373,0,0,1,2.411-5.854,8.238,8.238,0,0,1,5.851-2.288,7.9,7.9,0,0,1,6.434,2.9m-10.091,5.245a3.681,3.681,0,1,0,7.347.03,3.678,3.678,0,1,0-7.347-.03" transform="translate(-22.042 -0.933)" fill="#fff"/>
    <rect id="Rectangle_88" data-name="Rectangle 88" width="3.311" height="3.271" transform="translate(128.189 17.157)" fill="#fff"/>
    <path id="Path_47" data-name="Path 47" d="M162.223,11.663h3.015V12.83a3.849,3.849,0,0,1,3.375-1.528,4.853,4.853,0,0,1,3.695,1.55,6.449,6.449,0,0,1,1.528,4.246,5.312,5.312,0,0,1-5.2,5.605,4.063,4.063,0,0,1-3.205-1.338V25.91h-3.206Zm3.8,3.46a2.959,2.959,0,0,0-.742,1.847,2.7,2.7,0,0,0,2.7,2.739,2.707,2.707,0,0,0-.023-5.412,2.409,2.409,0,0,0-1.932.826" transform="translate(-27.473 -1.914)" fill="#fff"/>
    <rect id="Rectangle_89" data-name="Rectangle 89" width="3.205" height="14.226" transform="translate(149.123 6.202)" fill="#fff"/>
    <path id="Path_48" data-name="Path 48" d="M16.763,13.611A8.382,8.382,0,1,1,8.383,5.23a8.381,8.381,0,0,1,8.38,8.381" transform="translate(0 -0.886)" fill="#fff" fill-rule="evenodd"/>
  </g>
</svg>
