<svg xmlns="http://www.w3.org/2000/svg" width="211.144" height="71.742" viewBox="0 0 211.144 71.742">
  <g id="Group_168" data-name="Group 168" transform="translate(0 0)">
    <path id="Union_3" data-name="Union 3" d="M109.762,55.758a5.529,5.529,0,0,1-1.935-1.025l1.621-3.186a3.539,3.539,0,0,0,1.181.739,3.738,3.738,0,0,0,1.35.258,2.28,2.28,0,0,0,1.466-.443,3.824,3.824,0,0,0,1.01-1.465l.054-.129-6.6-15.432h4.552l4.306,10.386,4.343-10.386h4.238L118.44,51.321a9.418,9.418,0,0,1-1.694,2.915,5.389,5.389,0,0,1-2.1,1.465,7.278,7.278,0,0,1-2.546.428A7.733,7.733,0,0,1,109.762,55.758ZM80.591,49.583A7.95,7.95,0,0,1,77.62,38.647a7.591,7.591,0,0,1,2.971-2.79,9.031,9.031,0,0,1,4.31-1.009,9.172,9.172,0,0,1,4.353,1.009,7.581,7.581,0,0,1,2.987,2.79,7.752,7.752,0,0,1-2.987,10.936A9.042,9.042,0,0,1,84.9,50.608,8.9,8.9,0,0,1,80.591,49.583Zm2.348-10.568a3.646,3.646,0,0,0-1.407,1.437A4.575,4.575,0,0,0,81,42.729,4.675,4.675,0,0,0,81.531,45a3.614,3.614,0,0,0,1.407,1.466,4.212,4.212,0,0,0,3.969,0A3.659,3.659,0,0,0,88.3,45a4.693,4.693,0,0,0,.525-2.275,4.592,4.592,0,0,0-.525-2.276,3.692,3.692,0,0,0-1.395-1.437,3.912,3.912,0,0,0-1.976-.5A3.992,3.992,0,0,0,82.938,39.016ZM60.471,49.627a7.1,7.1,0,0,1-2.73-2.745,9.153,9.153,0,0,1,0-8.307,7.093,7.093,0,0,1,2.73-2.745,7.774,7.774,0,0,1,3.9-.981,6.556,6.556,0,0,1,3.386.854,5.069,5.069,0,0,1,1.193.983V29.272h4.438v21.11H69.149V48.625a4.888,4.888,0,0,1-1.324,1.145,6.735,6.735,0,0,1-3.456.839A7.777,7.777,0,0,1,60.471,49.627Zm2.674-10.611a3.656,3.656,0,0,0-1.407,1.437,4.578,4.578,0,0,0-.527,2.276A4.678,4.678,0,0,0,61.738,45a3.624,3.624,0,0,0,1.407,1.466,3.924,3.924,0,0,0,1.964.5,3.984,3.984,0,0,0,1.992-.5A3.636,3.636,0,0,0,68.509,45a4.688,4.688,0,0,0,.526-2.275,4.587,4.587,0,0,0-.526-2.276A3.669,3.669,0,0,0,67.1,39.016a4,4,0,0,0-1.992-.5A3.939,3.939,0,0,0,63.145,39.016ZM22.366,50a4.788,4.788,0,0,1-1.98-1.664,4.189,4.189,0,0,1-.7-2.36,4.027,4.027,0,0,1,2.787-3.984,10.66,10.66,0,0,1,3.813-.569h3.5v-.028a2.858,2.858,0,0,0-.868-2.218,3.822,3.822,0,0,0-2.658-.8,7.739,7.739,0,0,0-2.4.385A6.777,6.777,0,0,0,21.824,39.8l-1.565-3.1a9.012,9.012,0,0,1,3.016-1.38,13.84,13.84,0,0,1,3.584-.47A8.116,8.116,0,0,1,32.293,36.5q1.934,1.648,1.934,5.148v8.733H30.074V48.453a4.013,4.013,0,0,1-1.366,1.371,6.233,6.233,0,0,1-3.3.784A7.01,7.01,0,0,1,22.366,50ZM24.6,44.49a1.642,1.642,0,0,0-.582,1.282,1.594,1.594,0,0,0,.669,1.351,2.96,2.96,0,0,0,1.806.5,4.028,4.028,0,0,0,2.034-.512,2.789,2.789,0,0,0,1.266-1.565V43.98H26.745A3.359,3.359,0,0,0,24.6,44.49Zm24.618,5.892V42.3a3.941,3.941,0,0,0-.81-2.731,2.958,2.958,0,0,0-2.29-.882,3.906,3.906,0,0,0-1.892.454,3.185,3.185,0,0,0-1.309,1.338,4.984,4.984,0,0,0-.469,2.333v7.568H38.005V35.076h4.239v1.839a5.779,5.779,0,0,1,1.565-1.242,7.273,7.273,0,0,1,3.5-.826,7.129,7.129,0,0,1,3.259.726,5.268,5.268,0,0,1,2.26,2.219,7.853,7.853,0,0,1,.826,3.826v8.763Zm47.232,0V35.074h4.239v2.037a4.883,4.883,0,0,1,1.593-1.425,7.443,7.443,0,0,1,3.669-.839v4.124c-.171-.036-.336-.066-.5-.084a3.865,3.865,0,0,0-.47-.028,4.166,4.166,0,0,0-2.987,1.052,4.278,4.278,0,0,0-1.109,3.243v7.225ZM0,50.379V30.467H8.62a11.18,11.18,0,0,1,4.609.868,6.742,6.742,0,0,1,2.987,2.487,7.56,7.56,0,0,1,0,7.7,6.87,6.87,0,0,1-2.987,2.489,11.045,11.045,0,0,1-4.609.883H4.636v5.489Zm4.636-9.244H8.364a4.829,4.829,0,0,0,3.186-.912,3.167,3.167,0,0,0,1.082-2.56,3.124,3.124,0,0,0-1.082-2.545,4.9,4.9,0,0,0-3.186-.9H4.636Zm38-20.778a7.106,7.106,0,0,1-2.729-2.745,8.286,8.286,0,0,1-1-4.154,8.278,8.278,0,0,1,1-4.153,7.09,7.09,0,0,1,2.729-2.745,7.778,7.778,0,0,1,3.9-.981,6.557,6.557,0,0,1,3.386.853,5.1,5.1,0,0,1,1.193.981V0h4.438V21.11H51.314V19.355A4.916,4.916,0,0,1,49.991,20.5a6.749,6.749,0,0,1-3.456.839A7.775,7.775,0,0,1,42.637,20.357ZM45.311,9.744A3.67,3.67,0,0,0,43.9,11.183a4.576,4.576,0,0,0-.527,2.275,4.679,4.679,0,0,0,.527,2.276A3.615,3.615,0,0,0,45.311,17.2a3.907,3.907,0,0,0,1.964.5,3.967,3.967,0,0,0,1.991-.5,3.623,3.623,0,0,0,1.408-1.465,4.692,4.692,0,0,0,.526-2.276,4.588,4.588,0,0,0-.526-2.275,3.678,3.678,0,0,0-1.408-1.438,3.994,3.994,0,0,0-1.991-.5A3.935,3.935,0,0,0,45.311,9.744Zm-22,10.852a5.227,5.227,0,0,1-2.305-2.273,8.113,8.113,0,0,1-.824-3.87V5.8h4.437V13.77a4.15,4.15,0,0,0,.81,2.832,2.939,2.939,0,0,0,2.29.9,3.624,3.624,0,0,0,1.822-.455,3.228,3.228,0,0,0,1.266-1.366,4.948,4.948,0,0,0,.469-2.276V5.8h4.41V21.11H31.478V19.275a5.311,5.311,0,0,1-1.51,1.251,6.636,6.636,0,0,1-3.242.812A7.508,7.508,0,0,1,23.313,20.6Zm49.494-.283a7.565,7.565,0,0,1-4.053-6.857,7.7,7.7,0,0,1,1.08-4.082,7.577,7.577,0,0,1,2.973-2.787,9.01,9.01,0,0,1,4.31-1.01,9.164,9.164,0,0,1,4.353,1.01,7.572,7.572,0,0,1,2.987,2.787,7.716,7.716,0,0,1,1.08,4.082,7.637,7.637,0,0,1-1.08,4.069,7.716,7.716,0,0,1-2.987,2.788,9.044,9.044,0,0,1-4.353,1.022A8.893,8.893,0,0,1,72.807,20.313ZM75.152,9.744a3.7,3.7,0,0,0-1.408,1.437,4.594,4.594,0,0,0-.524,2.275,4.694,4.694,0,0,0,.524,2.276A3.627,3.627,0,0,0,75.152,17.2a4.2,4.2,0,0,0,3.97,0,3.625,3.625,0,0,0,1.392-1.465,4.677,4.677,0,0,0,.528-2.276,4.577,4.577,0,0,0-.528-2.275,3.694,3.694,0,0,0-1.392-1.437,3.9,3.9,0,0,0-1.977-.5A3.982,3.982,0,0,0,75.152,9.744ZM60.295,21.11v-6.9l-1.536,1.151-1.65-2.247,3.186-2.389V0h4.437V7.4l1.593-1.2,1.623,2.276-3.215,2.409V21.11ZM0,21.109V1.2H8.62a11.18,11.18,0,0,1,4.609.867,6.754,6.754,0,0,1,2.987,2.488,6.909,6.909,0,0,1,1.053,3.841,6.887,6.887,0,0,1-1.053,3.855,6.858,6.858,0,0,1-2.987,2.488,11.029,11.029,0,0,1-4.609.882H4.636v5.49Zm4.636-9.245H8.364a4.838,4.838,0,0,0,3.186-.91,3.169,3.169,0,0,0,1.082-2.561A3.122,3.122,0,0,0,11.55,5.848a4.89,4.89,0,0,0-3.186-.9H4.636Z" transform="translate(85.037 11.257)" fill="#fff" stroke="rgba(0,0,0,0)" stroke-miterlimit="10" stroke-width="1"/>
    <path id="Path_21" data-name="Path 21" d="M48.326,63.356,74.464,37.232,37.217,0,0,37.232,26.109,63.356V49h.015L14.372,37.232l17.2-17.211V68.815L34.5,71.742V12.952L10.23,37.232,23.2,50.213V56.3L4.142,37.232,37.217,4.142l33.1,33.09L51.253,56.287V50.213L64.234,37.232,39.94,12.952v58.79l2.927-2.927V20.021L60.092,37.232,48.326,49Z" fill="#fff"/>
  </g>
</svg>
