<svg xmlns="http://www.w3.org/2000/svg" xmlns:xlink="http://www.w3.org/1999/xlink" width="24.945" height="25.347" viewBox="0 0 24.945 25.347">
  <defs>
    <clipPath id="clip-path">
      <rect id="Rectangle_85" data-name="Rectangle 85" width="24.945" height="25.347" fill="#fff"/>
    </clipPath>
  </defs>
  <g id="Group_226" data-name="Group 226" clip-path="url(#clip-path)">
    <path id="Path_40" data-name="Path 40" d="M12.473,0A12.574,12.574,0,0,0,0,12.673,12.574,12.574,0,0,0,12.473,25.347,12.574,12.574,0,0,0,24.945,12.673,12.574,12.574,0,0,0,12.473,0m5.719,18.509a.817.817,0,0,1-.507.379.806.806,0,0,1-.618-.095Q12.441,15.948,5.58,17.5a.749.749,0,0,1-.6-.095.849.849,0,0,1-.367-.505.878.878,0,0,1,.109-.632.771.771,0,0,1,.5-.364,21.978,21.978,0,0,1,5.3-.6,14.323,14.323,0,0,1,7.39,2.072.835.835,0,0,1,.281,1.139m.962-3.131a1.012,1.012,0,0,1-.773-.127A15.58,15.58,0,0,0,12.1,13.188a16.831,16.831,0,0,0-6.743.514,1,1,0,0,1-.782-.063.967.967,0,0,1-.484-.617,1.057,1.057,0,0,1,.078-.783,1.089,1.089,0,0,1,.593-.514,20.948,20.948,0,0,1,5.756-.732,18.564,18.564,0,0,1,8.919,2.487,1.118,1.118,0,0,1,.462.656,1.071,1.071,0,0,1-.75,1.242m1.688-4.088a1.189,1.189,0,0,1-.914-.134,18.183,18.183,0,0,0-7.666-2.174,21.234,21.234,0,0,0-7.524.64,1.141,1.141,0,0,1-.93-.079,1.216,1.216,0,0,1-.586-.727.045.045,0,0,0,0-.01,1.233,1.233,0,0,1,.816-1.539,21.154,21.154,0,0,1,6.135-.834q1.134,0,2.343.09a20.527,20.527,0,0,1,8.65,2.514l.041.024a1.212,1.212,0,0,1,.4,1.668,1.229,1.229,0,0,1-.758.561" fill="#fff"/>
  </g>
</svg>
