<svg xmlns="http://www.w3.org/2000/svg" xmlns:xlink="http://www.w3.org/1999/xlink" width="150.27" height="34.248" viewBox="0 0 150.27 34.248">
  <defs>
    <clipPath id="clip-path">
      <rect id="Rectangle_84" data-name="Rectangle 84" width="150.27" height="34.248" fill="#fff"/>
    </clipPath>
  </defs>
  <g id="Group_224" data-name="Group 224" clip-path="url(#clip-path)">
    <path id="Path_39" data-name="Path 39" d="M19.688,12.72h9.039V28.726H0V12.72H9.039v7.987H19.655V12.72ZM50.254,20.9a4.224,4.224,0,1,1-8.447,0V8.02H37.8V20.871a7.928,7.928,0,0,0,8.25,8.283,7.911,7.911,0,0,0,8.25-8.283V8.02h-4.01V20.9Zm14.363-6.935a4.738,4.738,0,0,0-4.141,2.169V14.363H56.729V28.726h3.878V20.444a2.707,2.707,0,0,1,2.7-2.991c1.873,0,2.662,1.249,2.662,2.859v8.381h3.878V19.655c-.033-3.155-1.676-5.686-5.226-5.686m14.232,6.048-2.136-.427C75.891,19.425,75.4,19,75.4,18.307c0-.822.723-1.413,1.742-1.413,1.446,0,2,.723,2.136,1.611h3.352c-.033-1.972-1.578-4.536-5.423-4.536-3.09,0-5.357,2.136-5.357,4.7,0,2,1.249,3.681,4.01,4.273l1.972.427c1.118.23,1.545.756,1.545,1.413,0,.756-.69,1.413-1.972,1.413a2.42,2.42,0,0,1-2.6-1.906H71.355c.2,2.136,1.742,4.864,6.08,4.864,3.747,0,5.653-2.4,5.653-4.733.033-2.1-1.413-3.813-4.24-4.4M99.621,21.5c0,4.339-2.728,7.56-6.771,7.56a5.068,5.068,0,0,1-4.141-1.742v6.935H84.831V14.363h3.747v1.775a5.018,5.018,0,0,1,4.4-2.1c4.207,0,6.639,3.221,6.639,7.461m-3.813.033c0-2.531-1.578-4.01-3.55-4.01S88.676,19,88.676,21.528s1.611,4.043,3.583,4.043,3.55-1.479,3.55-4.043m22.35-7.165h3.747V28.726h-3.878V26.951a4.7,4.7,0,0,1-4.141,2.1c-4.043,0-6.771-3.221-6.771-7.56,0-4.273,2.432-7.461,6.606-7.461a5.061,5.061,0,0,1,4.4,2.1V14.363Zm-.066,7.165c0-2.531-1.611-4.01-3.583-4.01s-3.55,1.479-3.55,4.01c0,2.564,1.578,4.043,3.55,4.043s3.583-1.512,3.583-4.043m-16.664,7.165h3.878V8.02h-3.878Zm43.517-14.725a5.062,5.062,0,0,0-3.878,1.578V8.02h-3.878V28.693h3.878V20.279a2.689,2.689,0,0,1,2.7-2.794c1.873,0,2.662,1.249,2.662,2.859v8.381H150.3V19.688c-.033-3.188-1.709-5.719-5.357-5.719m-13.8,6.048L129,19.589c-.822-.164-1.315-.592-1.315-1.282,0-.822.723-1.413,1.742-1.413,1.446,0,2,.723,2.136,1.611h3.352c-.033-1.972-1.578-4.536-5.423-4.536-3.09,0-5.357,2.136-5.357,4.7,0,2,1.249,3.681,4.01,4.273l1.972.427c1.117.23,1.545.756,1.545,1.413,0,.756-.69,1.413-1.972,1.413a2.42,2.42,0,0,1-2.6-1.906h-3.451c.2,2.136,1.742,4.864,6.08,4.864,3.747,0,5.653-2.4,5.653-4.733.033-2.1-1.413-3.813-4.24-4.4M19.688,0H9.039V8.02H19.655V0Z" fill="#fff"/>
  </g>
</svg>
